<?xml version="1.0" encoding="UTF-8"?>
<svg id="fl-layout-svg-screenshot-container" xmlns="http://www.w3.org/2000/svg" version="1.1" xmlns:xlink="http://www.w3.org/1999/xlink" viewBox="0 0 785.45 500">
  <!-- Generator: Adobe Illustrator 29.5.1, SVG Export Plug-In . SVG Version: 2.1.0 Build 141)  -->
  <defs>
    <style>
      .st0 {
        clip-path: url(#clippath-6);
      }

      .st1 {
        stroke: #fff;
        stroke-width: 3.5px;
      }

      .st1, .st2, .st3, .st4 {
        isolation: isolate;
      }

      .st1, .st2, .st4 {
        font-size: 14px;
      }

      .st1, .st5, .st6, .st7, .st8, .st9, .st10 {
        fill: none;
      }

      .st1, .st4 {
        font-family: Arial-BoldMT, Arial;
        font-weight: 700;
      }

      .st2 {
        fill: #4a4a4a;
        font-family: ArialMT, Arial;
      }

      .st11 {
        clip-path: url(#clippath-4);
      }

      .st12, .st13, .st4 {
        fill: #4328e7;
      }

      .st5 {
        stroke: #4328e7;
        stroke-width: 2.8px;
      }

      .st7 {
        stroke: #aaa;
      }

      .st14 {
        clip-path: url(#clippath-1);
      }

      .st15 {
        clip-path: url(#clippath-5);
      }

      .st8, .st10 {
        stroke: #eee;
      }

      .st16 {
        clip-path: url(#clippath-3);
      }

      .st17, .st18 {
        fill-opacity: 0;
      }

      .st18 {
        fill: #eee;
      }

      .st13 {
        fill-opacity: .7;
      }

      .st9 {
        display: none;
        stroke: red;
      }

      .st10 {
        stroke-linecap: square;
      }
    </style>
    <clipPath id="clippath-1">
      <rect class="st6" x="54.63" y="18.05" width="692.44" height="411.56"/>
    </clipPath>
    <clipPath id="clippath-3">
      <rect class="st6" x="55.63" y="16.25" width="686.94" height="415.16"/>
    </clipPath>
    <clipPath id="clippath-4">
      <rect class="st6" x="55.63" y="16.25" width="686.94" height="415.16"/>
    </clipPath>
    <clipPath id="clippath-5">
      <rect class="st6" x="55.63" y="16.25" width="686.94" height="415.16"/>
    </clipPath>
    <clipPath id="clippath-6">
      <rect class="st6" x="52.13" y="16.25" width="693.94" height="412.36"/>
    </clipPath>
    <clipPath id="clippath-7">
      <rect class="st6" x="52.13" y="16.25" width="693.94" height="412.36"/>
    </clipPath>
  </defs>
  <g>
    <rect class="st6" x="55.63" y="10.5" width="734.06" height="418.11"/>
    <rect class="st6" x="55.63" y="10.5" width="734.06" height="418.11"/>
    <polygon class="st18" points="55.63 10.5 55.63 10.5 55.63 10.5 55.63 10.5"/>
    <g>
      <rect class="st9" x="55.63" y="10.5" width="734.06" height="418.11"/>
      <g>
        <rect class="st6" x="55.63" y="19.05" width="690.44" height="409.56"/>
        <rect class="st17" x="55.63" y="19.05" width="690.44" height="409.56"/>
      </g>
      <g class="st14">
        <g>
          <line class="st8" x1="55.63" y1="428.61" x2="746.07" y2="428.61"/>
          <line class="st8" x1="55.63" y1="293.25" x2="746.07" y2="293.25"/>
          <line class="st8" x1="55.63" y1="157.9" x2="746.07" y2="157.9"/>
          <line class="st8" x1="55.63" y1="22.55" x2="746.07" y2="22.55"/>
        </g>
      </g>
      <g>
        <g>
          <line class="st10" x1="55.63" y1="428.61" x2="746.07" y2="428.61"/>
          <g>
            <g>
              <line class="st8" x1="742.57" y1="428.61" x2="742.57" y2="435.61"/>
              <g class="st3">
                <text class="st2" transform="translate(712.77 481.97) rotate(-45)"><tspan x="0" y="0">2025-01</tspan></text>
              </g>
            </g>
            <g>
              <line class="st8" x1="684.91" y1="428.61" x2="684.91" y2="435.61"/>
              <g class="st3">
                <text class="st2" transform="translate(655.11 481.97) rotate(-45)"><tspan x="0" y="0">2024-10</tspan></text>
              </g>
            </g>
            <g>
              <line class="st8" x1="627.25" y1="428.61" x2="627.25" y2="435.61"/>
              <g class="st3">
                <text class="st2" transform="translate(597.45 481.97) rotate(-45)"><tspan x="0" y="0">2024-07</tspan></text>
              </g>
            </g>
            <g>
              <line class="st8" x1="570.21" y1="428.61" x2="570.21" y2="435.61"/>
              <g class="st3">
                <text class="st2" transform="translate(540.41 481.97) rotate(-45)"><tspan x="0" y="0">2024-04</tspan></text>
              </g>
            </g>
            <g>
              <line class="st8" x1="513.17" y1="428.61" x2="513.17" y2="435.61"/>
              <g class="st3">
                <text class="st2" transform="translate(483.38 481.97) rotate(-45)"><tspan x="0" y="0">2024-01</tspan></text>
              </g>
            </g>
            <g>
              <line class="st8" x1="455.51" y1="428.61" x2="455.51" y2="435.61"/>
              <g class="st3">
                <text class="st2" transform="translate(425.71 481.97) rotate(-45)"><tspan x="0" y="0">2023-10</tspan></text>
              </g>
            </g>
            <g>
              <line class="st8" x1="397.85" y1="428.61" x2="397.85" y2="435.61"/>
              <g class="st3">
                <text class="st2" transform="translate(368.05 481.97) rotate(-45)"><tspan x="0" y="0">2023-07</tspan></text>
              </g>
            </g>
            <g>
              <line class="st8" x1="340.81" y1="428.61" x2="340.81" y2="435.61"/>
              <g class="st3">
                <text class="st2" transform="translate(311.02 481.97) rotate(-45)"><tspan x="0" y="0">2023-04</tspan></text>
              </g>
            </g>
            <g>
              <line class="st8" x1="284.4" y1="428.61" x2="284.4" y2="435.61"/>
              <g class="st3">
                <text class="st2" transform="translate(254.61 481.97) rotate(-45)"><tspan x="0" y="0">2023-01</tspan></text>
              </g>
            </g>
            <g>
              <line class="st8" x1="226.74" y1="428.61" x2="226.74" y2="435.61"/>
              <g class="st3">
                <text class="st2" transform="translate(196.95 481.97) rotate(-45)"><tspan x="0" y="0">2022-10</tspan></text>
              </g>
            </g>
            <g>
              <line class="st8" x1="169.08" y1="428.61" x2="169.08" y2="435.61"/>
              <g class="st3">
                <text class="st2" transform="translate(139.28 481.97) rotate(-45)"><tspan x="0" y="0">2022-07</tspan></text>
              </g>
            </g>
            <g>
              <line class="st8" x1="112.04" y1="428.61" x2="112.04" y2="435.61"/>
              <g class="st3">
                <text class="st2" transform="translate(82.25 481.97) rotate(-45)"><tspan x="0" y="0">2022-04</tspan></text>
              </g>
            </g>
            <g>
              <line class="st8" x1="55.63" y1="428.61" x2="55.63" y2="435.61"/>
              <g class="st3">
                <text class="st2" transform="translate(25.84 481.97) rotate(-45)"><tspan x="0" y="0">2022-01</tspan></text>
              </g>
            </g>
          </g>
        </g>
        <g>
          <line class="st10" x1="55.63" y1="428.61" x2="55.63" y2="19.05"/>
          <g>
            <g>
              <line class="st8" x1="55.63" y1="22.55" x2="48.63" y2="22.55"/>
              <g class="st3">
                <text class="st2" transform="translate(25.67 27.17)"><tspan x="0" y="0">1.6</tspan></text>
              </g>
            </g>
            <g>
              <line class="st8" x1="55.63" y1="157.9" x2="48.63" y2="157.9"/>
              <g class="st3">
                <text class="st2" transform="translate(25.67 162.52)"><tspan x="0" y="0">1.5</tspan></text>
              </g>
            </g>
            <g>
              <line class="st8" x1="55.63" y1="293.25" x2="48.63" y2="293.25"/>
              <g class="st3">
                <text class="st2" transform="translate(25.67 297.87)"><tspan x="0" y="0">1.4</tspan></text>
              </g>
            </g>
            <g>
              <line class="st8" x1="55.63" y1="428.61" x2="48.63" y2="428.61"/>
              <g class="st3">
                <text class="st2" transform="translate(25.67 433.23)"><tspan x="0" y="0">1.3</tspan></text>
              </g>
            </g>
          </g>
        </g>
      </g>
    </g>
  </g>
  <g id="areas">
    <g pointer-events="none">
      <g class="st16">
        <path class="st13" d="M55.63,266.18c6.48,20.3,12.95,40.61,19.43,40.61,5.85,0,11.7-38.86,17.55-54.14,6.48-16.92,12.95-40.6,19.43-40.6s12.53,94.75,18.8,94.75h19.43c6.27,0,12.54-94.75,18.8-94.75s12.95,22.56,19.43,40.6c6.48,18.05,12.95,67.68,19.43,67.68s12.54-54.14,18.8-54.14,12.95,54.14,19.43,54.14h18.8c6.48,0,12.95-40.61,19.43-40.61s12.95,121.82,19.43,121.82c5.85,0,11.7-4.51,17.55-13.54,6.48-9.99,12.95-67.68,19.43-67.68s12.54,27.07,18.8,27.07,12.95-67.68,19.43-67.68,12.54,51.92,18.8,67.68c6.48,16.28,12.95,27.07,19.43,27.07s12.95-162.42,19.43-162.42,12.53,94.75,18.8,94.75,12.95-13.54,19.43-13.54,12.53,81.21,18.8,81.21,12.95-40.61,19.43-54.14c6.48-13.54,12.95-27.07,19.43-27.07,6.06,0,12.12,67.68,18.18,67.68,6.48,0,12.95-94.75,19.43-94.75s12.54,54.14,18.8,54.14,12.95-13.54,19.43-13.54,12.53,13.54,18.8,13.54,12.95-121.82,19.43-121.82,12.95,69.74,19.43,94.75c6.27,24.2,12.54,54.14,18.8,54.14s12.95-94.75,19.43-94.75,12.54,54.14,18.8,108.28v1827.25s0,0,0,0H55.63V266.18Z"/>
      </g>
    </g>
  </g>
  <g id="lines">
    <g>
      <g class="st11">
        <path class="st6" d="M55.63,266.18c6.48,20.3,12.95,40.61,19.43,40.61,5.85,0,11.7-38.86,17.55-54.14,6.48-16.92,12.95-40.6,19.43-40.6s12.53,94.75,18.8,94.75h19.43c6.27,0,12.54-94.75,18.8-94.75s12.95,22.56,19.43,40.6c6.48,18.05,12.95,67.68,19.43,67.68s12.54-54.14,18.8-54.14,12.95,54.14,19.43,54.14h18.8c6.48,0,12.95-40.61,19.43-40.61s12.95,121.82,19.43,121.82c5.85,0,11.7-4.51,17.55-13.54,6.48-9.99,12.95-67.68,19.43-67.68s12.54,27.07,18.8,27.07,12.95-67.68,19.43-67.68,12.54,51.92,18.8,67.68c6.48,16.28,12.95,27.07,19.43,27.07s12.95-162.42,19.43-162.42,12.53,94.75,18.8,94.75,12.95-13.54,19.43-13.54,12.53,81.21,18.8,81.21,12.95-40.61,19.43-54.14c6.48-13.54,12.95-27.07,19.43-27.07,6.06,0,12.12,67.68,18.18,67.68,6.48,0,12.95-94.75,19.43-94.75s12.54,54.14,18.8,54.14,12.95-13.54,19.43-13.54,12.53,13.54,18.8,13.54,12.95-121.82,19.43-121.82,12.95,69.74,19.43,94.75c6.27,24.2,12.54,54.14,18.8,54.14s12.95-94.75,19.43-94.75,12.54,54.14,18.8,108.28" pointer-events="none"/>
      </g>
      <g class="st15">
        <path class="st5" d="M55.63,266.18c6.48,20.3,12.95,40.61,19.43,40.61,5.85,0,11.7-38.86,17.55-54.14,6.48-16.92,12.95-40.6,19.43-40.6s12.53,94.75,18.8,94.75h19.43c6.27,0,12.54-94.75,18.8-94.75s12.95,22.56,19.43,40.6c6.48,18.05,12.95,67.68,19.43,67.68s12.54-54.14,18.8-54.14,12.95,54.14,19.43,54.14h18.8c6.48,0,12.95-40.61,19.43-40.61s12.95,121.82,19.43,121.82c5.85,0,11.7-4.51,17.55-13.54,6.48-9.99,12.95-67.68,19.43-67.68s12.54,27.07,18.8,27.07,12.95-67.68,19.43-67.68,12.54,51.92,18.8,67.68c6.48,16.28,12.95,27.07,19.43,27.07s12.95-162.42,19.43-162.42,12.53,94.75,18.8,94.75,12.95-13.54,19.43-13.54,12.53,81.21,18.8,81.21,12.95-40.61,19.43-54.14c6.48-13.54,12.95-27.07,19.43-27.07,6.06,0,12.12,67.68,18.18,67.68,6.48,0,12.95-94.75,19.43-94.75s12.54,54.14,18.8,54.14,12.95-13.54,19.43-13.54,12.53,13.54,18.8,13.54,12.95-121.82,19.43-121.82,12.95,69.74,19.43,94.75c6.27,24.2,12.54,54.14,18.8,54.14s12.95-94.75,19.43-94.75,12.54,54.14,18.8,108.28" pointer-events="none"/>
      </g>
    </g>
    <g>
      <path class="st7" d="M726.64,360.93h3.5"/>
      <g class="st3">
        <text class="st1" transform="translate(733.64 365.55)"><tspan x="0" y="0">Price</tspan></text>
      </g>
      <g class="st3">
        <text class="st4" transform="translate(733.64 365.55)"><tspan x="0" y="0">Price</tspan></text>
      </g>
    </g>
  </g>
  <g id="data-points">
    <g class="st0">
      <g>
        <path id="point-0-0" class="st12" d="M52.13,266.18c0-1.93,1.57-3.5,3.5-3.5s3.5,1.57,3.5,3.5-1.57,3.5-3.5,3.5-3.5-1.57-3.5-3.5Z"/>
        <path id="point-0-1" class="st12" d="M71.56,306.79c0-1.93,1.57-3.5,3.5-3.5s3.5,1.57,3.5,3.5-1.57,3.5-3.5,3.5-3.5-1.57-3.5-3.5Z"/>
        <path id="point-0-2" class="st12" d="M89.11,252.65c0-1.93,1.57-3.5,3.5-3.5s3.5,1.57,3.5,3.5-1.57,3.5-3.5,3.5-3.5-1.57-3.5-3.5Z"/>
        <path id="point-0-3" class="st12" d="M108.54,212.04c0-1.93,1.57-3.5,3.5-3.5s3.5,1.57,3.5,3.5-1.57,3.5-3.5,3.5-3.5-1.57-3.5-3.5Z"/>
        <path id="point-0-4" class="st12" d="M127.35,306.79c0-1.93,1.57-3.5,3.5-3.5s3.5,1.57,3.5,3.5-1.57,3.5-3.5,3.5-3.5-1.57-3.5-3.5Z"/>
        <path id="point-0-5" class="st12" d="M146.78,306.79c0-1.93,1.57-3.5,3.5-3.5s3.5,1.57,3.5,3.5-1.57,3.5-3.5,3.5-3.5-1.57-3.5-3.5Z"/>
        <path id="point-0-6" class="st12" d="M165.58,212.04c0-1.93,1.57-3.5,3.5-3.5s3.5,1.57,3.5,3.5-1.57,3.5-3.5,3.5-3.5-1.57-3.5-3.5Z"/>
        <path id="point-0-7" class="st12" d="M185.01,252.65c0-1.93,1.57-3.5,3.5-3.5s3.5,1.57,3.5,3.5-1.57,3.5-3.5,3.5-3.5-1.57-3.5-3.5Z"/>
        <path id="point-0-8" class="st12" d="M204.44,320.32c0-1.93,1.57-3.5,3.5-3.5s3.5,1.57,3.5,3.5-1.57,3.5-3.5,3.5-3.5-1.57-3.5-3.5Z"/>
        <path id="point-0-9" class="st12" d="M223.24,266.18c0-1.93,1.57-3.5,3.5-3.5s3.5,1.57,3.5,3.5-1.57,3.5-3.5,3.5-3.5-1.57-3.5-3.5Z"/>
        <path id="point-0-10" class="st12" d="M242.67,320.32c0-1.93,1.57-3.5,3.5-3.5s3.5,1.57,3.5,3.5-1.57,3.5-3.5,3.5-3.5-1.57-3.5-3.5Z"/>
        <path id="point-0-11" class="st12" d="M261.47,320.32c0-1.93,1.57-3.5,3.5-3.5s3.5,1.57,3.5,3.5-1.57,3.5-3.5,3.5-3.5-1.57-3.5-3.5Z"/>
        <path id="point-0-12" class="st12" d="M280.9,279.72c0-1.93,1.57-3.5,3.5-3.5s3.5,1.57,3.5,3.5-1.57,3.5-3.5,3.5-3.5-1.57-3.5-3.5Z"/>
        <path id="point-0-13" class="st12" d="M300.33,401.54c0-1.93,1.57-3.5,3.5-3.5s3.5,1.57,3.5,3.5-1.57,3.5-3.5,3.5-3.5-1.57-3.5-3.5Z"/>
        <path id="point-0-14" class="st12" d="M317.88,388c0-1.93,1.57-3.5,3.5-3.5s3.5,1.57,3.5,3.5-1.57,3.5-3.5,3.5-3.5-1.57-3.5-3.5Z"/>
        <path id="point-0-15" class="st12" d="M337.31,320.32c0-1.93,1.57-3.5,3.5-3.5s3.5,1.57,3.5,3.5-1.57,3.5-3.5,3.5-3.5-1.57-3.5-3.5Z"/>
        <path id="point-0-16" class="st12" d="M356.12,347.39c0-1.93,1.57-3.5,3.5-3.5s3.5,1.57,3.5,3.5-1.57,3.5-3.5,3.5-3.5-1.57-3.5-3.5Z"/>
        <path id="point-0-17" class="st12" d="M375.55,279.72c0-1.93,1.57-3.5,3.5-3.5s3.5,1.57,3.5,3.5-1.57,3.5-3.5,3.5-3.5-1.57-3.5-3.5Z"/>
        <path id="point-0-18" class="st12" d="M394.35,347.39c0-1.93,1.57-3.5,3.5-3.5s3.5,1.57,3.5,3.5-1.57,3.5-3.5,3.5-3.5-1.57-3.5-3.5Z"/>
        <path id="point-0-19" class="st12" d="M413.78,374.47c0-1.93,1.57-3.5,3.5-3.5s3.5,1.57,3.5,3.5h0c0,1.93-1.57,3.5-3.5,3.5s-3.5-1.57-3.5-3.5Z"/>
        <path id="point-0-20" class="st12" d="M433.21,212.04c0-1.93,1.57-3.5,3.5-3.5s3.5,1.57,3.5,3.5-1.57,3.5-3.5,3.5-3.5-1.57-3.5-3.5Z"/>
        <path id="point-0-21" class="st12" d="M452.01,306.79c0-1.93,1.57-3.5,3.5-3.5s3.5,1.57,3.5,3.5-1.57,3.5-3.5,3.5-3.5-1.57-3.5-3.5Z"/>
        <path id="point-0-22" class="st12" d="M471.44,293.25c0-1.93,1.57-3.5,3.5-3.5s3.5,1.57,3.5,3.5-1.57,3.5-3.5,3.5-3.5-1.57-3.5-3.5Z"/>
        <path id="point-0-23" class="st12" d="M490.24,374.47c0-1.93,1.57-3.5,3.5-3.5s3.5,1.57,3.5,3.5h0c0,1.93-1.57,3.5-3.5,3.5s-3.5-1.57-3.5-3.5Z"/>
        <path id="point-0-24" class="st12" d="M509.67,320.32c0-1.93,1.57-3.5,3.5-3.5s3.5,1.57,3.5,3.5-1.57,3.5-3.5,3.5-3.5-1.57-3.5-3.5Z"/>
        <path id="point-0-25" class="st12" d="M529.1,293.25c0-1.93,1.57-3.5,3.5-3.5s3.5,1.57,3.5,3.5-1.57,3.5-3.5,3.5-3.5-1.57-3.5-3.5Z"/>
        <path id="point-0-26" class="st12" d="M547.28,360.93c0-1.93,1.57-3.5,3.5-3.5s3.5,1.57,3.5,3.5-1.57,3.5-3.5,3.5-3.5-1.57-3.5-3.5Z"/>
        <path id="point-0-27" class="st12" d="M566.71,266.18c0-1.93,1.56-3.5,3.49-3.51s3.5,1.56,3.51,3.49v.02c0,1.93-1.56,3.5-3.49,3.51-1.93,0-3.5-1.56-3.51-3.49,0,0,0-.01,0-.02Z"/>
        <path id="point-0-28" class="st12" d="M585.51,320.32c0-1.93,1.57-3.5,3.5-3.5s3.5,1.57,3.5,3.5-1.57,3.5-3.5,3.5-3.5-1.57-3.5-3.5Z"/>
        <path id="point-0-29" class="st12" d="M604.94,306.79c0-1.93,1.57-3.5,3.5-3.5s3.5,1.57,3.5,3.5-1.57,3.5-3.5,3.5-3.5-1.57-3.5-3.5Z"/>
        <path id="point-0-30" class="st12" d="M623.75,320.32c0-1.93,1.57-3.5,3.5-3.5s3.5,1.57,3.5,3.5-1.57,3.5-3.5,3.5-3.5-1.57-3.5-3.5Z"/>
        <path id="point-0-31" class="st12" d="M643.18,198.51c0-1.93,1.57-3.5,3.5-3.5s3.5,1.57,3.5,3.5-1.57,3.5-3.5,3.5-3.5-1.57-3.5-3.5Z"/>
        <path id="point-0-32" class="st12" d="M662.61,293.25c0-1.93,1.57-3.5,3.5-3.5s3.5,1.57,3.5,3.5-1.57,3.5-3.5,3.5-3.5-1.57-3.5-3.5Z"/>
        <path id="point-0-33" class="st12" d="M681.41,347.39c0-1.93,1.57-3.5,3.5-3.5s3.5,1.57,3.5,3.5-1.57,3.5-3.5,3.5-3.5-1.57-3.5-3.5Z"/>
        <path id="point-0-34" class="st12" d="M700.84,252.65c0-1.93,1.57-3.5,3.5-3.5s3.5,1.57,3.5,3.5-1.57,3.5-3.5,3.5-3.5-1.57-3.5-3.5Z"/>
        <path id="point-0-35" class="st12" d="M719.64,360.93c0-1.93,1.57-3.5,3.5-3.5s3.5,1.57,3.5,3.5-1.57,3.5-3.5,3.5-3.5-1.57-3.5-3.5Z"/>
      </g>
    </g>
  </g>
</svg>