<?xml version="1.0" encoding="UTF-8"?>
<svg id="fl-layout-svg-screenshot-container" xmlns="http://www.w3.org/2000/svg" version="1.1" xmlns:xlink="http://www.w3.org/1999/xlink" viewBox="0 0 785.45 500">
  <!-- Generator: Adobe Illustrator 29.5.1, SVG Export Plug-In . SVG Version: 2.1.0 Build 141)  -->
  <defs>
    <style>
      .st0 {
        clip-path: url(#clippath-6);
      }

      .st1 {
        stroke: #fff;
        stroke-width: 3.5px;
      }

      .st1, .st2, .st3 {
        font-size: 14px;
      }

      .st1, .st2, .st3, .st4 {
        isolation: isolate;
      }

      .st1, .st3 {
        font-family: Arial-BoldMT, Arial;
        font-weight: 700;
      }

      .st1, .st5, .st6, .st7, .st8, .st9, .st10 {
        fill: none;
      }

      .st2 {
        fill: #4a4a4a;
        font-family: ArialMT, Arial;
      }

      .st3, .st11, .st12 {
        fill: #135ae1;
      }

      .st13 {
        clip-path: url(#clippath-4);
      }

      .st6 {
        stroke: #aaa;
      }

      .st14 {
        clip-path: url(#clippath-1);
      }

      .st15 {
        clip-path: url(#clippath-5);
      }

      .st7 {
        stroke: #135ae1;
        stroke-width: 2.8px;
      }

      .st8, .st10 {
        stroke: #eee;
      }

      .st16 {
        clip-path: url(#clippath-3);
      }

      .st17, .st18 {
        fill-opacity: 0;
      }

      .st18 {
        fill: #eee;
      }

      .st9 {
        display: none;
        stroke: red;
      }

      .st10 {
        stroke-linecap: square;
      }

      .st12 {
        fill-opacity: .7;
      }
    </style>
    <clipPath id="clippath-1">
      <rect class="st5" x="54.44" y="18.05" width="692.44" height="411.56"/>
    </clipPath>
    <clipPath id="clippath-3">
      <rect class="st5" x="55.44" y="16.25" width="686.94" height="415.16"/>
    </clipPath>
    <clipPath id="clippath-4">
      <rect class="st5" x="55.44" y="16.25" width="686.94" height="415.16"/>
    </clipPath>
    <clipPath id="clippath-5">
      <rect class="st5" x="55.44" y="16.25" width="686.94" height="415.16"/>
    </clipPath>
    <clipPath id="clippath-6">
      <rect class="st5" x="51.94" y="16.25" width="693.94" height="412.36"/>
    </clipPath>
    <clipPath id="clippath-7">
      <rect class="st5" x="51.94" y="16.25" width="693.94" height="412.36"/>
    </clipPath>
  </defs>
  <g>
    <rect class="st5" x="55.44" y="10.5" width="734.06" height="418.11"/>
    <rect class="st5" x="55.44" y="10.5" width="734.06" height="418.11"/>
    <polygon class="st18" points="55.44 10.5 55.44 10.5 55.44 10.5 55.44 10.5"/>
    <g>
      <rect class="st9" x="55.44" y="10.5" width="734.06" height="418.11"/>
      <g>
        <rect class="st5" x="55.44" y="19.05" width="690.44" height="409.56"/>
        <rect class="st17" x="55.44" y="19.05" width="690.44" height="409.56"/>
      </g>
      <g class="st14">
        <g>
          <line class="st8" x1="55.44" y1="428.61" x2="745.87" y2="428.61"/>
          <line class="st8" x1="55.44" y1="293.25" x2="745.87" y2="293.25"/>
          <line class="st8" x1="55.44" y1="157.9" x2="745.87" y2="157.9"/>
          <line class="st8" x1="55.44" y1="22.55" x2="745.87" y2="22.55"/>
        </g>
      </g>
      <g>
        <g>
          <line class="st10" x1="55.44" y1="428.61" x2="745.87" y2="428.61"/>
          <g>
            <g>
              <line class="st8" x1="742.37" y1="428.61" x2="742.37" y2="435.61"/>
              <g class="st4">
                <text class="st2" transform="translate(712.58 481.97) rotate(-45)"><tspan x="0" y="0">2025-01</tspan></text>
              </g>
            </g>
            <g>
              <line class="st8" x1="684.71" y1="428.61" x2="684.71" y2="435.61"/>
              <g class="st4">
                <text class="st2" transform="translate(654.91 481.97) rotate(-45)"><tspan x="0" y="0">2024-10</tspan></text>
              </g>
            </g>
            <g>
              <line class="st8" x1="627.05" y1="428.61" x2="627.05" y2="435.61"/>
              <g class="st4">
                <text class="st2" transform="translate(597.25 481.97) rotate(-45)"><tspan x="0" y="0">2024-07</tspan></text>
              </g>
            </g>
            <g>
              <line class="st8" x1="570.01" y1="428.61" x2="570.01" y2="435.61"/>
              <g class="st4">
                <text class="st2" transform="translate(540.22 481.97) rotate(-45)"><tspan x="0" y="0">2024-04</tspan></text>
              </g>
            </g>
            <g>
              <line class="st8" x1="512.98" y1="428.61" x2="512.98" y2="435.61"/>
              <g class="st4">
                <text class="st2" transform="translate(483.18 481.97) rotate(-45)"><tspan x="0" y="0">2024-01</tspan></text>
              </g>
            </g>
            <g>
              <line class="st8" x1="455.31" y1="428.61" x2="455.31" y2="435.61"/>
              <g class="st4">
                <text class="st2" transform="translate(425.52 481.97) rotate(-45)"><tspan x="0" y="0">2023-10</tspan></text>
              </g>
            </g>
            <g>
              <line class="st8" x1="397.65" y1="428.61" x2="397.65" y2="435.61"/>
              <g class="st4">
                <text class="st2" transform="translate(367.85 481.97) rotate(-45)"><tspan x="0" y="0">2023-07</tspan></text>
              </g>
            </g>
            <g>
              <line class="st8" x1="340.62" y1="428.61" x2="340.62" y2="435.61"/>
              <g class="st4">
                <text class="st2" transform="translate(310.82 481.97) rotate(-45)"><tspan x="0" y="0">2023-04</tspan></text>
              </g>
            </g>
            <g>
              <line class="st8" x1="284.21" y1="428.61" x2="284.21" y2="435.61"/>
              <g class="st4">
                <text class="st2" transform="translate(254.41 481.97) rotate(-45)"><tspan x="0" y="0">2023-01</tspan></text>
              </g>
            </g>
            <g>
              <line class="st8" x1="226.54" y1="428.61" x2="226.54" y2="435.61"/>
              <g class="st4">
                <text class="st2" transform="translate(196.75 481.97) rotate(-45)"><tspan x="0" y="0">2022-10</tspan></text>
              </g>
            </g>
            <g>
              <line class="st8" x1="168.88" y1="428.61" x2="168.88" y2="435.61"/>
              <g class="st4">
                <text class="st2" transform="translate(139.08 481.97) rotate(-45)"><tspan x="0" y="0">2022-07</tspan></text>
              </g>
            </g>
            <g>
              <line class="st8" x1="111.84" y1="428.61" x2="111.84" y2="435.61"/>
              <g class="st4">
                <text class="st2" transform="translate(82.05 481.97) rotate(-45)"><tspan x="0" y="0">2022-04</tspan></text>
              </g>
            </g>
            <g>
              <line class="st8" x1="55.44" y1="428.61" x2="55.44" y2="435.61"/>
              <g class="st4">
                <text class="st2" transform="translate(25.64 481.97) rotate(-45)"><tspan x="0" y="0">2022-01</tspan></text>
              </g>
            </g>
          </g>
        </g>
        <g>
          <line class="st10" x1="55.44" y1="428.61" x2="55.44" y2="19.05"/>
          <g>
            <g>
              <line class="st8" x1="55.44" y1="22.55" x2="48.44" y2="22.55"/>
              <g class="st4">
                <text class="st2" transform="translate(25.47 27.17)"><tspan x="0" y="0">1.6</tspan></text>
              </g>
            </g>
            <g>
              <line class="st8" x1="55.44" y1="157.9" x2="48.44" y2="157.9"/>
              <g class="st4">
                <text class="st2" transform="translate(25.47 162.52)"><tspan x="0" y="0">1.5</tspan></text>
              </g>
            </g>
            <g>
              <line class="st8" x1="55.44" y1="293.25" x2="48.44" y2="293.25"/>
              <g class="st4">
                <text class="st2" transform="translate(25.47 297.87)"><tspan x="0" y="0">1.4</tspan></text>
              </g>
            </g>
            <g>
              <line class="st8" x1="55.44" y1="428.61" x2="48.44" y2="428.61"/>
              <g class="st4">
                <text class="st2" transform="translate(25.47 433.23)"><tspan x="0" y="0">1.3</tspan></text>
              </g>
            </g>
          </g>
        </g>
      </g>
    </g>
  </g>
  <g id="areas">
    <g pointer-events="none">
      <g class="st16">
        <path class="st12" d="M55.44,212.04c6.48,33.84,12.95,67.68,19.43,67.68,5.85,0,11.7-27.07,17.55-27.07h19.43c6.27,0,12.53-67.68,18.8-67.68s12.95,67.68,19.43,67.68,12.54-32.08,18.8-54.14c6.48-22.79,12.95-81.21,19.43-81.21s12.95,17.36,19.43,40.61c6.27,22.49,12.54,94.75,18.8,94.75s12.95-4.51,19.43-13.53c6.27-8.73,12.54-40.61,18.8-40.61s12.95,121.82,19.43,121.82,12.95-32.45,19.43-54.14c5.85-19.59,11.7-67.68,17.55-67.68,6.48,0,12.95,27.07,19.43,27.07s12.54-108.28,18.8-108.28,12.95,116.7,19.43,135.35c6.27,18.05,12.54,27.07,18.8,27.07h19.43c6.48,0,12.95-54.14,19.43-54.14s12.53,13.54,18.8,13.54,12.95-135.35,19.43-135.35,12.53,148.89,18.8,148.89,12.95-13.53,19.43-27.07c6.48-13.54,12.95-54.14,19.43-54.14,6.06,0,12.12,54.14,18.18,54.14,6.48,0,12.95-27.07,19.43-27.07h18.8c6.48,0,12.95-13.54,19.43-13.54s12.53,121.82,18.8,121.82,12.95-121.82,19.43-121.82,12.95,54.14,19.43,54.14,12.54-27.07,18.8-27.07,12.95,40.6,19.43,40.6,12.54-60.91,18.8-121.82v2057.35s0,0,0,0H55.44V212.04Z"/>
      </g>
    </g>
  </g>
  <g id="lines">
    <g>
      <g class="st13">
        <path class="st5" d="M55.44,212.04c6.48,33.84,12.95,67.68,19.43,67.68,5.85,0,11.7-27.07,17.55-27.07h19.43c6.27,0,12.53-67.68,18.8-67.68s12.95,67.68,19.43,67.68,12.54-32.08,18.8-54.14c6.48-22.79,12.95-81.21,19.43-81.21s12.95,17.36,19.43,40.61c6.27,22.49,12.54,94.75,18.8,94.75s12.95-4.51,19.43-13.53c6.27-8.73,12.54-40.61,18.8-40.61s12.95,121.82,19.43,121.82,12.95-32.45,19.43-54.14c5.85-19.59,11.7-67.68,17.55-67.68,6.48,0,12.95,27.07,19.43,27.07s12.54-108.28,18.8-108.28,12.95,116.7,19.43,135.35c6.27,18.05,12.54,27.07,18.8,27.07h19.43c6.48,0,12.95-54.14,19.43-54.14s12.53,13.54,18.8,13.54,12.95-135.35,19.43-135.35,12.53,148.89,18.8,148.89,12.95-13.53,19.43-27.07c6.48-13.54,12.95-54.14,19.43-54.14,6.06,0,12.12,54.14,18.18,54.14,6.48,0,12.95-27.07,19.43-27.07h18.8c6.48,0,12.95-13.54,19.43-13.54s12.53,121.82,18.8,121.82,12.95-121.82,19.43-121.82,12.95,54.14,19.43,54.14,12.54-27.07,18.8-27.07,12.95,40.6,19.43,40.6,12.54-60.91,18.8-121.82" pointer-events="none"/>
      </g>
      <g class="st15">
        <path class="st7" d="M55.44,212.04c6.48,33.84,12.95,67.68,19.43,67.68,5.85,0,11.7-27.07,17.55-27.07h19.43c6.27,0,12.53-67.68,18.8-67.68s12.95,67.68,19.43,67.68,12.54-32.08,18.8-54.14c6.48-22.79,12.95-81.21,19.43-81.21s12.95,17.36,19.43,40.61c6.27,22.49,12.54,94.75,18.8,94.75s12.95-4.51,19.43-13.53c6.27-8.73,12.54-40.61,18.8-40.61s12.95,121.82,19.43,121.82,12.95-32.45,19.43-54.14c5.85-19.59,11.7-67.68,17.55-67.68,6.48,0,12.95,27.07,19.43,27.07s12.54-108.28,18.8-108.28,12.95,116.7,19.43,135.35c6.27,18.05,12.54,27.07,18.8,27.07h19.43c6.48,0,12.95-54.14,19.43-54.14s12.53,13.54,18.8,13.54,12.95-135.35,19.43-135.35,12.53,148.89,18.8,148.89,12.95-13.53,19.43-27.07c6.48-13.54,12.95-54.14,19.43-54.14,6.06,0,12.12,54.14,18.18,54.14,6.48,0,12.95-27.07,19.43-27.07h18.8c6.48,0,12.95-13.54,19.43-13.54s12.53,121.82,18.8,121.82,12.95-121.82,19.43-121.82,12.95,54.14,19.43,54.14,12.54-27.07,18.8-27.07,12.95,40.6,19.43,40.6,12.54-60.91,18.8-121.82" pointer-events="none"/>
      </g>
    </g>
    <g>
      <path class="st6" d="M726.44,130.83h3.5"/>
      <g class="st4">
        <text class="st1" transform="translate(733.44 135.45)"><tspan x="0" y="0">Price</tspan></text>
      </g>
      <g class="st4">
        <text class="st3" transform="translate(733.44 135.45)"><tspan x="0" y="0">Price</tspan></text>
      </g>
    </g>
  </g>
  <g id="data-points">
    <g class="st0">
      <g>
        <path id="point-0-0" class="st11" d="M51.94,212.04c0-1.93,1.57-3.5,3.5-3.5s3.5,1.57,3.5,3.5-1.57,3.5-3.5,3.5-3.5-1.57-3.5-3.5Z"/>
        <path id="point-0-1" class="st11" d="M71.37,279.72c0-1.93,1.57-3.5,3.5-3.5s3.5,1.57,3.5,3.5-1.57,3.5-3.5,3.5-3.5-1.57-3.5-3.5Z"/>
        <path id="point-0-2" class="st11" d="M88.92,252.65c0-1.93,1.57-3.5,3.5-3.5s3.5,1.57,3.5,3.5-1.57,3.5-3.5,3.5-3.5-1.57-3.5-3.5Z"/>
        <path id="point-0-3" class="st11" d="M108.34,252.65c0-1.93,1.57-3.5,3.5-3.5s3.5,1.57,3.5,3.5-1.57,3.5-3.5,3.5-3.5-1.57-3.5-3.5Z"/>
        <path id="point-0-4" class="st11" d="M127.15,184.97c0-1.93,1.57-3.5,3.5-3.5s3.5,1.57,3.5,3.5h0c0,1.93-1.57,3.5-3.5,3.5s-3.5-1.57-3.5-3.5Z"/>
        <path id="point-0-5" class="st11" d="M146.58,252.65c0-1.93,1.57-3.5,3.5-3.5s3.5,1.57,3.5,3.5-1.57,3.5-3.5,3.5-3.5-1.57-3.5-3.5Z"/>
        <path id="point-0-6" class="st11" d="M165.38,198.51c0-1.93,1.57-3.5,3.5-3.5s3.5,1.57,3.5,3.5-1.57,3.5-3.5,3.5-3.5-1.57-3.5-3.5Z"/>
        <path id="point-0-7" class="st11" d="M184.81,117.3c0-1.93,1.57-3.5,3.5-3.5s3.5,1.57,3.5,3.5-1.57,3.5-3.5,3.5-3.5-1.57-3.5-3.5Z"/>
        <path id="point-0-8" class="st11" d="M204.24,157.9c0-1.93,1.57-3.5,3.5-3.5s3.5,1.57,3.5,3.5-1.57,3.5-3.5,3.5-3.5-1.57-3.5-3.5Z"/>
        <path id="point-0-9" class="st11" d="M223.04,252.65c0-1.93,1.57-3.5,3.5-3.5s3.5,1.57,3.5,3.5-1.57,3.5-3.5,3.5-3.5-1.57-3.5-3.5Z"/>
        <path id="point-0-10" class="st11" d="M242.47,239.11c0-1.93,1.57-3.5,3.5-3.5s3.5,1.57,3.5,3.5-1.57,3.5-3.5,3.5-3.5-1.57-3.5-3.5Z"/>
        <path id="point-0-11" class="st11" d="M261.28,198.51c0-1.93,1.57-3.5,3.5-3.5s3.5,1.57,3.5,3.5-1.57,3.5-3.5,3.5-3.5-1.57-3.5-3.5Z"/>
        <path id="point-0-12" class="st11" d="M280.71,320.32c0-1.93,1.57-3.5,3.5-3.5s3.5,1.57,3.5,3.5-1.57,3.5-3.5,3.5-3.5-1.57-3.5-3.5Z"/>
        <path id="point-0-13" class="st11" d="M300.14,266.18c0-1.93,1.57-3.5,3.5-3.5s3.5,1.57,3.5,3.5-1.57,3.5-3.5,3.5-3.5-1.57-3.5-3.5Z"/>
        <path id="point-0-14" class="st11" d="M317.69,198.51c0-1.93,1.57-3.5,3.5-3.5s3.5,1.57,3.5,3.5-1.57,3.5-3.5,3.5-3.5-1.57-3.5-3.5Z"/>
        <path id="point-0-15" class="st11" d="M337.12,225.58c0-1.93,1.57-3.5,3.5-3.5s3.5,1.57,3.5,3.5-1.57,3.5-3.5,3.5-3.5-1.57-3.5-3.5Z"/>
        <path id="point-0-16" class="st11" d="M355.92,117.3c0-1.93,1.57-3.5,3.5-3.5s3.5,1.57,3.5,3.5-1.57,3.5-3.5,3.5-3.5-1.57-3.5-3.5Z"/>
        <path id="point-0-17" class="st11" d="M375.35,252.65c0-1.93,1.57-3.5,3.5-3.5s3.5,1.57,3.5,3.5-1.57,3.5-3.5,3.5-3.5-1.57-3.5-3.5Z"/>
        <path id="point-0-18" class="st11" d="M394.15,279.72c0-1.93,1.57-3.5,3.5-3.5s3.5,1.57,3.5,3.5-1.57,3.5-3.5,3.5-3.5-1.57-3.5-3.5Z"/>
        <path id="point-0-19" class="st11" d="M413.58,279.72c0-1.93,1.57-3.5,3.5-3.5s3.5,1.57,3.5,3.5-1.57,3.5-3.5,3.5-3.5-1.57-3.5-3.5Z"/>
        <path id="point-0-20" class="st11" d="M433.01,225.58c0-1.93,1.57-3.5,3.5-3.5s3.5,1.57,3.5,3.5-1.57,3.5-3.5,3.5-3.5-1.57-3.5-3.5Z"/>
        <path id="point-0-21" class="st11" d="M451.81,239.11c0-1.93,1.57-3.5,3.5-3.5s3.5,1.57,3.5,3.5-1.57,3.5-3.5,3.5-3.5-1.57-3.5-3.5Z"/>
        <path id="point-0-22" class="st11" d="M471.24,103.76c0-1.93,1.57-3.5,3.5-3.5s3.5,1.57,3.5,3.5-1.57,3.5-3.5,3.5-3.5-1.57-3.5-3.5Z"/>
        <path id="point-0-23" class="st11" d="M490.05,252.65c0-1.93,1.57-3.5,3.5-3.5s3.5,1.57,3.5,3.5-1.57,3.5-3.5,3.5-3.5-1.57-3.5-3.5Z"/>
        <path id="point-0-24" class="st11" d="M509.48,225.58c0-1.93,1.57-3.5,3.5-3.5s3.5,1.57,3.5,3.5-1.57,3.5-3.5,3.5-3.5-1.57-3.5-3.5Z"/>
        <path id="point-0-25" class="st11" d="M528.91,171.44c0-1.93,1.57-3.5,3.5-3.5s3.5,1.57,3.5,3.5-1.57,3.5-3.5,3.5-3.5-1.57-3.5-3.5Z"/>
        <path id="point-0-26" class="st11" d="M547.08,225.58c0-1.93,1.57-3.5,3.5-3.5s3.5,1.57,3.5,3.5-1.57,3.5-3.5,3.5-3.5-1.57-3.5-3.5Z"/>
        <path id="point-0-27" class="st11" d="M566.51,198.51c0-1.93,1.56-3.5,3.49-3.51s3.5,1.56,3.51,3.49v.02c0,1.93-1.56,3.5-3.49,3.51-1.93,0-3.5-1.56-3.51-3.49,0,0,0-.01,0-.02Z"/>
        <path id="point-0-28" class="st11" d="M585.31,198.51c0-1.93,1.57-3.5,3.5-3.5s3.5,1.57,3.5,3.5-1.57,3.5-3.5,3.5-3.5-1.57-3.5-3.5Z"/>
        <path id="point-0-29" class="st11" d="M604.74,184.97c0-1.93,1.57-3.5,3.5-3.5s3.5,1.57,3.5,3.5h0c0,1.93-1.57,3.5-3.5,3.5s-3.5-1.57-3.5-3.5Z"/>
        <path id="point-0-30" class="st11" d="M623.55,306.79c0-1.93,1.57-3.5,3.5-3.5s3.5,1.57,3.5,3.5-1.57,3.5-3.5,3.5-3.5-1.57-3.5-3.5Z"/>
        <path id="point-0-31" class="st11" d="M642.98,184.97c0-1.93,1.57-3.5,3.5-3.5s3.5,1.57,3.5,3.5h0c0,1.93-1.57,3.5-3.5,3.5s-3.5-1.57-3.5-3.5Z"/>
        <path id="point-0-32" class="st11" d="M662.41,239.11c0-1.93,1.57-3.5,3.5-3.5s3.5,1.57,3.5,3.5-1.57,3.5-3.5,3.5-3.5-1.57-3.5-3.5Z"/>
        <path id="point-0-33" class="st11" d="M681.21,212.04c0-1.93,1.57-3.5,3.5-3.5s3.5,1.57,3.5,3.5-1.57,3.5-3.5,3.5-3.5-1.57-3.5-3.5Z"/>
        <path id="point-0-34" class="st11" d="M700.64,252.65c0-1.93,1.57-3.5,3.5-3.5s3.5,1.57,3.5,3.5-1.57,3.5-3.5,3.5-3.5-1.57-3.5-3.5Z"/>
        <path id="point-0-35" class="st11" d="M719.44,130.83c0-1.93,1.57-3.5,3.5-3.5s3.5,1.57,3.5,3.5-1.57,3.5-3.5,3.5-3.5-1.57-3.5-3.5Z"/>
      </g>
    </g>
  </g>
</svg>